<svg width="540" height="540" viewBox="0 0 540 540" fill="none" xmlns="http://www.w3.org/2000/svg">
<path d="M38.1755 162.504C34.8859 134.003 57.1686 109 85.8589 109L442.4 109C471.091 109 493.374 134.003 490.084 162.504L481.167 239.746C478.372 263.966 457.864 282.242 433.484 282.242H94.7743C70.394 282.242 49.8864 263.965 47.0909 239.746L38.1755 162.504Z" fill="#D99EB5"/>
<path d="M38.3622 313.356C35.9636 303.301 43.5878 293.644 53.9256 293.644H480.654C490.992 293.644 498.616 303.301 496.217 313.357L493.848 323.287C492.129 330.491 485.691 335.573 478.284 335.573H56.2941C48.8877 335.573 42.4492 330.49 40.7308 323.286L38.3622 313.356Z" fill="#D99EB5"/>
<path d="M78.0217 346L99.1311 348.098L91.3336 426.564C91.0059 429.862 88.0671 432.269 84.7697 431.942L75.6015 431.031C72.3041 430.703 69.8966 427.764 70.2242 424.467L78.0217 346Z" fill="#D99EB5"/>
<path d="M458.109 346L437 348.098L444.798 426.564C445.125 429.862 448.064 432.269 451.361 431.942L460.53 431.031C463.827 430.703 466.235 427.764 465.907 424.467L458.109 346Z" fill="#D99EB5"/>
<path d="M116.482 347.009H131.729V405.809C131.729 409.122 129.043 411.809 125.729 411.809H122.482C119.169 411.809 116.482 409.122 116.482 405.809V347.009Z" fill="#D99EB5"/>
<path d="M404.177 347.009H419.424V405.809C419.424 409.122 416.738 411.809 413.424 411.809H410.177C406.863 411.809 404.177 409.122 404.177 405.809V347.009Z" fill="#D99EB5"/>
</svg>
